<?xml version="1.0" encoding="utf-8"?>
<!-- Generator: Adobe Illustrator 27.5.0, SVG Export Plug-In . SVG Version: 6.00 Build 0)  -->
<svg version="1.1" xmlns="http://www.w3.org/2000/svg" xmlns:xlink="http://www.w3.org/1999/xlink" x="0px" y="0px"
	 viewBox="0 0 3710 3710" style="enable-background:new 0 0 3710 3710;" xml:space="preserve">
<g id="Background">
	<g>
		<g>
			<rect style="fill:#FFFFFF;" width="3710" height="3710"/>
		</g>
	</g>
</g>
<g id="Illustration">
	<g>
		<path style="fill:#F4F7FA;" d="M3244.253,1624.188c-56.433-369.382-101.737-624.658-305.521-764.541
			c-343.734-235.948-727.615,147.086-1214.528-109.935c-239.737-126.547-248.723-273.268-451.761-292.743
			C913.226,422.514,619.05,851.204,593.555,887.968c-154.902,223.374-206.645,495.746-143.849,755.419
			c40.784,168.661,68.346,343.218,60.781,516.527c-13.164,301.627-5.589,583.173,287.134,763.056
			c261.366,160.615,590.302,302.272,904.11,327.082c213.261,16.863,452.422-10.425,657.965-65.946
			C3407.198,2901.143,3321.845,2132.068,3244.253,1624.188z"/>
		<g>
			<g>
				<g>
					<defs>
						<path id="SVGID_1_" d="M1686.052,2134.732c86.592-66.679,203.067-177.334,267.133-343.63
							c84.02-218.094,4.076-340.27,51.434-718.785c29.944-239.332,53.253-406.055,182.983-483.769
							c101.663-60.901,256.508-59.849,343.299,14.293c72.164,61.648,105.729,181.044,111.377,264.48
							c4.603,68-9.095,115.708,26.03,154.725c35.897,39.874,80.442,23.64,114.692,53.923c69.458,61.412,8.66,236.405-1.167,264.687
							c-109.305,314.607-427.437,502.899-567.196,583.361C2099.081,1990.545,1921.933,2076.935,1686.052,2134.732z"/>
					</defs>
					
						<linearGradient id="SVGID_00000135658746428153418730000002441043890816555688_" gradientUnits="userSpaceOnUse" x1="1686.0515" y1="1339.8107" x2="2815.835" y2="1339.8107">
						<stop  offset="0" style="stop-color:#AA80F9"/>
						<stop  offset="0.9964" style="stop-color:#6165D7"/>
					</linearGradient>
					
						<use xlink:href="#SVGID_1_"  style="overflow:visible;fill:url(#SVGID_00000135658746428153418730000002441043890816555688_);"/>
					<clipPath id="SVGID_00000041990955395781031040000001798176642862277782_">
						<use xlink:href="#SVGID_1_"  style="overflow:visible;"/>
					</clipPath>
					<g style="opacity:0.5;clip-path:url(#SVGID_00000041990955395781031040000001798176642862277782_);">
						<g>
							<path style="fill:#FFFFFF;" d="M1589.88,2186.468l-2.32-8.52c250.995-68.308,570.327-207.097,666.242-480.378
								c35.271-100.486,36.76-208.126,38.819-357.104c1.646-118.967-7.917-203.431-16.356-277.953
								c-11.044-97.524-19.766-174.555,2.157-283.002c22.244-110.032,69.682-216.93,140.993-317.724l7.209,5.1
								c-70.597,99.784-117.547,205.555-139.546,314.373c-21.648,107.084-12.996,183.506-2.04,280.26
								c8.469,74.782,18.066,159.541,16.414,279.047c-1.996,144.2-3.571,258.08-39.318,359.928
								c-45.724,130.276-146.647,242.684-299.967,334.103C1858.668,2096.309,1733.413,2147.406,1589.88,2186.468z"/>
						</g>
						<g>
							<path style="fill:#FFFFFF;" d="M2298.385,1258.326l-4.357-2.43c-0.752-0.42-76.109-43.013-146.86-131.659
								c-65.298-81.812-140.072-220.775-125.478-418.194l8.806,0.651c-14.382,194.564,59.262,331.457,123.573,412.034
								c60.047,75.233,123.186,116.632,139.967,126.904c85.466-206.852,213.071-329.407,305.406-395.92
								c100.929-72.702,182.91-96.096,183.726-96.324l2.374,8.505c-0.802,0.225-81.565,23.323-181.279,95.23
								c-91.986,66.335-219.397,188.985-303.996,396.582L2298.385,1258.326z"/>
						</g>
						<g>
							<path style="fill:#FFFFFF;" d="M2283.747,1579.423l-1.545-2.814c-0.66-1.206-67.226-121.855-157.621-229.729
								c-89.773-107.133-319.2-163.756-321.508-164.316l2.083-8.581c9.534,2.312,234.571,57.885,326.195,167.225
								c83.239,99.337,146.376,209.406,157.013,228.322c251.277-51.845,567.412-597.215,570.59-602.741l7.656,4.401
								c-0.803,1.395-81.44,141.086-192.431,284.928c-149.437,193.666-279.737,302.24-387.277,322.705L2283.747,1579.423z"/>
						</g>
						<g>
							<path style="fill:#FFFFFF;" d="M2000.49,2009.527l5.111-7.163c72.885-102.153,74.891-216.735,5.963-340.562
								c-51.629-92.748-125.777-155.953-126.52-156.581l5.699-6.746c0.755,0.638,76.133,64.891,128.535,159.032
								c68.101,122.338,67.56,240.618-1.403,342.662c30.144-1.444,134.932-8.546,267.927-40.839
								c145.266-35.273,354.875-108.681,528.496-258.085l337.515-290.442l5.758,6.694l-337.515,290.442
								c-175.016,150.606-386.122,224.532-532.396,260.027c-158.442,38.447-277.19,41.35-278.371,41.375L2000.49,2009.527z"/>
						</g>
					</g>
				</g>
			</g>
			<g>
				<g>
					<defs>
						<path id="SVGID_00000164493269048528434850000003466259931630989494_" d="M2007.945,2214.766
							c171.328,20.551,392.516,22.288,612.578-48.728c56.16-18.124,403.094-130.082,381.114-284.812
							c-7.742-54.504-54.721-68.286-66.346-140.977c-13.775-86.134,43.367-121.917,91.477-221.881
							c28.707-59.648,112.719-234.21,15.218-347.15c-58.264-67.489-178.708-109.921-275.32-98.592
							c-141.709,16.616-204.374,145.637-306.628,365.776c-90.645,195.145-78.878,246.894-146.603,386.277
							C2263.171,1928.123,2174.696,2068.368,2007.945,2214.766z"/>
					</defs>
					
						<linearGradient id="SVGID_00000102513611881063756190000015973574367764859309_" gradientUnits="userSpaceOnUse" x1="2881.0515" y1="1055.7162" x2="2481.4546" y2="2128.3198">
						<stop  offset="0.0036" style="stop-color:#E38DDD"/>
						<stop  offset="1" style="stop-color:#9571F6"/>
					</linearGradient>
					
						<use xlink:href="#SVGID_00000164493269048528434850000003466259931630989494_"  style="overflow:visible;fill:url(#SVGID_00000102513611881063756190000015973574367764859309_);"/>
					<clipPath id="SVGID_00000171715605652716441710000000932619125953807525_">
						<use xlink:href="#SVGID_00000164493269048528434850000003466259931630989494_"  style="overflow:visible;"/>
					</clipPath>
					<g style="opacity:0.5;clip-path:url(#SVGID_00000171715605652716441710000000932619125953807525_);">
						<g>
							<path style="fill:#FFFFFF;" d="M1983.427,2221.584c-55.63,17.574-112.618,30.017-170.907,37.29
								c-178.571,22.278-362.059-2.779-545.371-74.477l3.217-8.224c181.927,71.156,363.966,96.032,541.059,73.938
								c633.667-79.052,936.865-754.308,1014.693-959.38c44.134-116.297,53.225-249.58,27.016-396.146l8.692-1.555
								c26.494,148.162,17.257,283.022-27.453,400.833c-64.095,168.889-181.746,413.616-378.241,620.392
								C2313.357,2064.499,2154.917,2167.41,1983.427,2221.584z"/>
						</g>
						<g>
							<path style="fill:#FFFFFF;" d="M2671.28,1624.181l-2.133-3.347c-1.658-2.6-164.678-262.919-65.451-518.411l8.231,3.197
								c-91.53,235.673,43.974,475.887,62.599,507.078c389.199-195.139,416.128-465.26,415.072-543.59
								c-0.029-2.174-0.016-3.534,0.044-4.026l8.774,0.988c-0.03,0.455-0.009,1.438,0.011,2.919
								c1.077,79.877-26.29,355.854-423.592,553.424L2671.28,1624.181z"/>
						</g>
						<g>
							<path style="fill:#FFFFFF;" d="M2870.919,1916.014c-92.512,29.225-230.276,45.104-415.857-3.984l-2.281-0.603l-0.764-2.233
								c-0.758-2.206-75.003-223.861-21.124-507.667l54.288-285.94l8.677,1.647l-54.288,285.94
								c-50.545,266.23,12.498,477.122,20.074,500.932c217.601,57.04,368.119,23.815,456.187-14.189
								c95.43-41.192,139.712-96.435,140.147-96.988l6.936,5.466c-1.839,2.331-46.118,57.558-143.584,99.628
								C2904.862,1904.267,2888.723,1910.39,2870.919,1916.014z"/>
						</g>
					</g>
				</g>
			</g>
		</g>
		<g>
			
				<linearGradient id="SVGID_00000106145303763706995750000006428288227269766816_" gradientUnits="userSpaceOnUse" x1="891.8645" y1="1880.931" x2="3154.3542" y2="1880.931">
				<stop  offset="0" style="stop-color:#D8DEE8"/>
				<stop  offset="1" style="stop-color:#FFFFFF"/>
			</linearGradient>
			<polygon style="fill:url(#SVGID_00000106145303763706995750000006428288227269766816_);" points="3151.523,1622.038 
				3154.354,2461.736 1302.306,2497.282 891.865,1264.58 2715.61,1352.167 2708.519,1387.763 			"/>
			
				<linearGradient id="SVGID_00000133508129073666354530000013026008339877431439_" gradientUnits="userSpaceOnUse" x1="891.8645" y1="1443.309" x2="3151.5229" y2="1443.309">
				<stop  offset="0" style="stop-color:#FF9085"/>
				<stop  offset="1" style="stop-color:#FB6FBB"/>
			</linearGradient>
			<polygon style="fill:url(#SVGID_00000133508129073666354530000013026008339877431439_);" points="3151.523,1622.038 
				2712.065,1335.027 891.865,1264.58 1296.3,1554.973 			"/>
			
				<linearGradient id="SVGID_00000086661187343451376740000014510830913505630378_" gradientUnits="userSpaceOnUse" x1="2217.6421" y1="1746.1608" x2="2210.9924" y2="1970.0294">
				<stop  offset="0" style="stop-color:#D8DEE8"/>
				<stop  offset="1" style="stop-color:#FFFFFF"/>
			</linearGradient>
			<polygon style="fill:url(#SVGID_00000086661187343451376740000014510830913505630378_);" points="3181.53,1692.232 
				1261.679,1603.98 1261.679,1533.289 3181.558,1622.754 			"/>
			<g>
				
					<linearGradient id="SVGID_00000145044426273889518610000007931428269952652436_" gradientUnits="userSpaceOnUse" x1="557.9286" y1="1881.028" x2="1262.4478" y2="1881.028">
					<stop  offset="0" style="stop-color:#D8DEE8"/>
					<stop  offset="1" style="stop-color:#FFFFFF"/>
				</linearGradient>
				<polygon style="fill:url(#SVGID_00000145044426273889518610000007931428269952652436_);" points="891.865,1264.58 
					563.641,1619.796 557.929,2402.266 1262.448,2497.476 1262.402,1533.289 				"/>
				
					<linearGradient id="SVGID_00000137091459348833147950000006065270036015636891_" gradientUnits="userSpaceOnUse" x1="873.2153" y1="2382.1453" x2="910.416" y2="1610.2301">
					<stop  offset="0" style="stop-color:#D8DEE8"/>
					<stop  offset="1" style="stop-color:#FFFFFF"/>
				</linearGradient>
				<polygon style="fill:url(#SVGID_00000137091459348833147950000006065270036015636891_);" points="1262.406,1612.934 
					889.734,1321.183 557.414,1671.755 557.789,1620.75 891.241,1264.716 1262.402,1533.289 				"/>
				<g>
					<g>
						<polygon style="fill:#FFFFFF;" points="620.574,2269.301 624.597,1664.921 792.84,1647.184 789.722,2285.006 						"/>
						
							<linearGradient id="SVGID_00000078014770290471263240000010813106705963808410_" gradientUnits="userSpaceOnUse" x1="727.6132" y1="1606.6018" x2="666.0811" y2="2708.5977">
							<stop  offset="0.0036" style="stop-color:#E38DDD"/>
							<stop  offset="1" style="stop-color:#9571F6"/>
						</linearGradient>
						<polygon style="fill:url(#SVGID_00000078014770290471263240000010813106705963808410_);" points="778.228,2259.719 
							632.431,2248.761 636.11,1685.764 781.178,1670.907 						"/>
						<polygon style="fill:#FFFFFF;" points="699.514,2276.08 703.128,1656.443 717.631,1654.835 714.096,2277.213 						"/>
						<g>
							<polygon style="fill:#FFFFFF;" points="790.68,2089.118 621.809,2083.729 621.956,2061.76 790.793,2065.931 							"/>
							<polygon style="fill:#FFFFFF;" points="791.795,1861.043 623.248,1867.615 623.393,1845.745 791.907,1837.966 							"/>
						</g>
					</g>
					<g>
						<polygon style="fill:#FFFFFF;" points="919.883,2295.877 922.222,1633.106 1129.996,1610.642 1129.051,2313.745 						"/>
						
							<linearGradient id="SVGID_00000011719191006861657330000017154989841208201137_" gradientUnits="userSpaceOnUse" x1="1045.377" y1="1567.0221" x2="977.5801" y2="2781.2168">
							<stop  offset="0.0036" style="stop-color:#E38DDD"/>
							<stop  offset="1" style="stop-color:#9571F6"/>
						</linearGradient>
						<polygon style="fill:url(#SVGID_00000011719191006861657330000017154989841208201137_);" points="1109.137,2287.082 
							934.368,2273.432 936.455,1655.782 1110.145,1638.196 						"/>
						<polygon style="fill:#FFFFFF;" points="1011.872,2304.042 1013.62,1623.335 1030.702,1621.49 1029.068,2305.516 						"/>
						<g>
							<polygon style="fill:#FFFFFF;" points="1129.341,2097.706 920.602,2092.29 920.687,2068.193 1129.375,2072.138 							"/>
							<polygon style="fill:#FFFFFF;" points="1129.679,1846.283 921.438,1855.292 921.523,1831.315 1129.713,1820.85 							"/>
						</g>
					</g>
				</g>
			</g>
			<g>
				<polygon style="fill:#FFFFFF;" points="2232.208,1853.174 2234.927,2474.579 1606.243,2483.361 1600.266,1839.411 				"/>
				<polygon style="fill:#97A6B7;" points="2220.818,2474.766 1624.394,2483.099 1619.217,1917.45 1618.72,1861.463 
					2218.123,1873.802 2220.747,2460.265 				"/>
				<path style="opacity:0.3;fill:#97A6B7;" d="M2220.818,2474.766l-596.424,8.333l-5.177-565.649
					c40.492-1.807,136.332,10.779,189.872,157.997c69.141,190.121,96.513,232.67,214.019,250.399
					c92.438,13.935,167.464,67.368,197.639,134.418L2220.818,2474.766z"/>
				<polygon style="fill:#D8DEE8;" points="2257.885,1898.995 1576.31,1885.928 1575.521,1802.664 2257.551,1818.887 				"/>
				<polygon style="fill:#FFFFFF;" points="2249.681,1964.966 1586.11,1954.771 1585.465,1886.104 2249.401,1898.833 				"/>
				<g style="opacity:0.5;">
					<polygon style="fill:#D8DEE8;" points="2249.489,1919.724 1585.669,1907.796 1585.567,1896.951 2249.445,1909.279 					"/>
					<polygon style="fill:#D8DEE8;" points="2249.593,1944.089 1585.906,1933.094 1585.805,1922.253 2249.548,1933.648 					"/>
				</g>
			</g>
			<g>
				<polygon style="fill:#FFFFFF;" points="3035.619,1870.672 3034.513,2463.41 2463.293,2471.389 2461.703,1858.172 				"/>
				<polygon style="fill:#97A6B7;" points="3022.674,1890.363 3021.662,2463.59 2477.024,2471.197 2475.552,1879.106 				"/>
				<polygon style="fill:#D8DEE8;" points="3058.719,1914.349 2436.936,1902.428 2436.715,1823.149 3058.876,1837.948 				"/>
				<polygon style="fill:#FFFFFF;" points="3048.301,1977.236 2448.181,1968.016 2448.004,1902.64 3048.425,1914.151 				"/>
				<g style="opacity:0.5;">
					<polygon style="fill:#D8DEE8;" points="3046.458,1933.902 2447.162,1923.207 2446.686,1912.84 3046.482,1923.94 					"/>
					<polygon style="fill:#D8DEE8;" points="3046.404,1957.14 2447.223,1947.291 2446.746,1936.927 3046.427,1947.182 					"/>
				</g>
			</g>
		</g>
		<g>
			<g>
				
					<linearGradient id="SVGID_00000071524673015974119190000005649724250861077152_" gradientUnits="userSpaceOnUse" x1="3955.4702" y1="1728.171" x2="3632.0383" y2="2274.4114" gradientTransform="matrix(1 0 0 1 -3022.4941 0)">
					<stop  offset="0" style="stop-color:#FFC444"/>
					<stop  offset="0.3138" style="stop-color:#FBA94A"/>
					<stop  offset="0.9964" style="stop-color:#F36F56"/>
				</linearGradient>
				<polygon style="fill:url(#SVGID_00000071524673015974119190000005649724250861077152_);" points="929.302,2218.567 
					634.602,2182.538 634.602,1747.9 929.302,1692.078 				"/>
				<g>
					
						<linearGradient id="SVGID_00000083809900796006150400000009113366686314229890_" gradientUnits="userSpaceOnUse" x1="4251.3936" y1="1741.4354" x2="3915.9226" y2="2308.0085" gradientTransform="matrix(1 0 0 1 -3022.4941 0)">
						<stop  offset="0" style="stop-color:#FFC444"/>
						<stop  offset="0.3138" style="stop-color:#FBA94A"/>
						<stop  offset="0.9964" style="stop-color:#F36F56"/>
					</linearGradient>
					<polygon style="fill:url(#SVGID_00000083809900796006150400000009113366686314229890_);" points="1288.768,2195.667 
						929.302,2218.567 929.302,1692.078 1288.768,1741.703 					"/>
					<polygon style="fill:#FFFFFF;" points="1064.804,1710.785 1064.804,1784.603 1184.475,1795.783 1184.475,1727.306 					"/>
				</g>
			</g>
			<g>
				
					<linearGradient id="SVGID_00000074435890695812050870000005197011231817946797_" gradientUnits="userSpaceOnUse" x1="4314.4102" y1="2162.7141" x2="3847.6401" y2="2951.0369" gradientTransform="matrix(1 0 0 1 -3022.4941 0)">
					<stop  offset="0" style="stop-color:#FFC444"/>
					<stop  offset="0.3138" style="stop-color:#FBA94A"/>
					<stop  offset="0.9964" style="stop-color:#F36F56"/>
				</linearGradient>
				<polygon style="fill:url(#SVGID_00000074435890695812050870000005197011231817946797_);" points="1359.468,2793.382 
					876.362,2827.36 876.362,2119.784 1359.468,2153.762 				"/>
				
					<linearGradient id="SVGID_00000034780302622830208730000006735268168285905590_" gradientUnits="userSpaceOnUse" x1="3897.25" y1="2164.4167" x2="3462.5732" y2="2898.5376" gradientTransform="matrix(1 0 0 1 -3022.4941 0)">
					<stop  offset="0" style="stop-color:#FFC444"/>
					<stop  offset="0.3138" style="stop-color:#FBA94A"/>
					<stop  offset="0.9964" style="stop-color:#F36F56"/>
				</linearGradient>
				<polygon style="fill:url(#SVGID_00000034780302622830208730000006735268168285905590_);" points="876.362,2827.36 
					480.299,2778.938 480.299,2164.955 876.362,2119.784 				"/>
				<polygon style="fill:#FFFFFF;" points="1047.382,2131.813 1047.382,2242.438 1209.25,2250.656 1209.25,2143.197 				"/>
			</g>
		</g>
		<g>
			<g>
				
					<linearGradient id="SVGID_00000065032586470727420640000002016119378682520729_" gradientUnits="userSpaceOnUse" x1="3015.9465" y1="2724.0913" x2="3183.7363" y2="2724.0913">
					<stop  offset="0" style="stop-color:#311944"/>
					<stop  offset="1" style="stop-color:#6B3976"/>
				</linearGradient>
				<path style="fill:url(#SVGID_00000065032586470727420640000002016119378682520729_);" d="M3183.736,2723.356
					c0-37.021-14.676-69.456-35.557-89.104l0.492-21.374l-52.897,1.742c-43.451,3.3-79.828,52.592-79.828,111.728
					c0,59.135,37.148,107.117,79.053,108.89v0.067l55.873-0.258v-21.343C3168.332,2793.269,3183.736,2760.376,3183.736,2723.356z"/>
				<g>
					
						<linearGradient id="SVGID_00000122692747641024707350000010112424574170711456_" gradientUnits="userSpaceOnUse" x1="3066.1755" y1="2724.7334" x2="3230.9961" y2="2724.7334">
						<stop  offset="0" style="stop-color:#311944"/>
						<stop  offset="1" style="stop-color:#6B3976"/>
					</linearGradient>
					<path style="fill:url(#SVGID_00000122692747641024707350000010112424574170711456_);" d="M3230.996,2721.329
						c0,61.373-36.533,112.951-81.886,115.216c-45.673,2.281-82.935-46.248-82.935-108.407s37.262-113.767,82.935-115.259
						C3194.463,2611.396,3230.996,2659.956,3230.996,2721.329z"/>
					<path style="fill:#FFFFFF;" d="M3189.91,2723.026c0,35.252-18.235,64.672-40.8,65.716
						c-22.644,1.047-41.058-26.859-41.058-62.334c0-35.475,18.415-64.903,41.058-65.726
						C3171.675,2659.86,3189.91,2687.774,3189.91,2723.026z"/>
					<path style="fill:#D8DEE8;" d="M3149.11,2660.681c-2.23,0.081-4.417,0.45-6.552,1.065c19.48,4.191,34.323,30.012,34.323,61.819
						s-14.843,58.854-34.323,64.654c2.135,0.438,4.322,0.626,6.552,0.523c22.564-1.044,40.8-30.464,40.8-65.715
						C3189.91,2687.774,3171.675,2659.86,3149.11,2660.681z"/>
				</g>
			</g>
			<g>
				
					<linearGradient id="SVGID_00000043424946510542691290000013237447688533098379_" gradientUnits="userSpaceOnUse" x1="2016.4519" y1="2710.8174" x2="2304.4253" y2="2710.8174">
					<stop  offset="0" style="stop-color:#311944"/>
					<stop  offset="1" style="stop-color:#6B3976"/>
				</linearGradient>
				<path style="fill:url(#SVGID_00000043424946510542691290000013237447688533098379_);" d="M2304.425,2705.565
					c0-59.424-22.992-110.808-58.038-142.417l-3.669-33.794l-84.738,2.245c-77.525,5.101-141.53,86.899-141.53,185.815
					c0,98.916,65.856,175.635,139.189,174.758v0.109l90.793-4.626v-34.552C2281.354,2818.736,2304.425,2764.99,2304.425,2705.565z"
					/>
				<g>
					
						<linearGradient id="SVGID_00000060023196660075616770000003239570076871313292_" gradientUnits="userSpaceOnUse" x1="2103.1028" y1="2707.9065" x2="2386.9316" y2="2707.9065">
						<stop  offset="0" style="stop-color:#311944"/>
						<stop  offset="1" style="stop-color:#6B3976"/>
					</linearGradient>
					<path style="fill:url(#SVGID_00000060023196660075616770000003239570076871313292_);" d="M2386.932,2702.319
						c0,98.296-62.534,181.254-140.462,185.332c-78.814,4.125-143.367-73.83-143.367-174.159s64.552-183.365,143.367-185.446
						C2324.398,2525.989,2386.932,2604.022,2386.932,2702.319z"/>
					<path style="fill:#FFFFFF;" d="M2316.589,2705.088c0,56.568-31.306,103.89-70.12,105.707
						c-39.033,1.826-70.836-43.012-70.836-100.158c0-57.146,31.804-104.488,70.836-105.735
						C2285.283,2603.662,2316.589,2648.52,2316.589,2705.088z"/>
					<path style="fill:#D8DEE8;" d="M2246.469,2604.902c-3.841,0.123-7.608,0.708-11.286,1.69
						c33.534,6.799,59.044,48.306,59.044,99.377c0,51.071-25.51,94.586-59.044,104.025c3.678,0.691,7.445,0.98,11.286,0.8
						c38.814-1.816,70.12-49.138,70.12-105.706S2285.283,2603.662,2246.469,2604.902z"/>
				</g>
			</g>
			
				<linearGradient id="SVGID_00000025416878240144599270000006142963135786136254_" gradientUnits="userSpaceOnUse" x1="2141.6731" y1="2590.5654" x2="3119.4995" y2="2590.5654">
				<stop  offset="0" style="stop-color:#FFC444"/>
				<stop  offset="0.3138" style="stop-color:#FBA94A"/>
				<stop  offset="0.9964" style="stop-color:#F36F56"/>
			</linearGradient>
			<path style="fill:url(#SVGID_00000025416878240144599270000006142963135786136254_);" d="M3119.5,2343.877l-278.416,2.19
				l-0.103,0.396c-6.417-0.578-12.941-0.375-19.448,0.712l-61.181,10.221c-115.671,19.324-218.821,95.053-278.738,206.017
				l-17.702,32.781c-0.502,0.931-1.434,1.521-2.442,1.548l-97.317,2.592c-1.579,0.042-2.481-1.253-2.481-2.896v-62.506
				c0-26.302-20.895-47.256-46.287-46.793l-145.839,2.672c-15.717,0.287-27.873,13.611-27.873,29.757v98.8l237.944,213.742
				c3.177,2.844,6.902,4.314,11.173,4.126l251.201-11.027c6.741-0.296,12.71-4.881,15.274-11.611l37.856-99.479
				c11.904-31.239,39.947-52.241,70.955-53.231l112.279-3.584c12.458-0.398,23.429-7.432,30.102-17.847l147.44-21.727
				L3119.5,2343.877z"/>
			<g>
				
					<linearGradient id="SVGID_00000094579215005179445750000017998234498751360441_" gradientUnits="userSpaceOnUse" x1="2551.8491" y1="2320.95" x2="2699.6189" y2="2320.95">
					<stop  offset="0" style="stop-color:#40447E"/>
					<stop  offset="0.9964" style="stop-color:#3C3B6B"/>
				</linearGradient>
				<path style="fill:url(#SVGID_00000094579215005179445750000017998234498751360441_);" d="M2626.139,2425.919
					c-41.557,0.624-74.29-45.248-74.29-104.435s32.733-105.532,74.29-105.509c41.302,0.023,73.48,45.898,73.48,104.441
					S2667.441,2425.299,2626.139,2425.919z M2626.139,2248.693c-23.32,0.044-43.084,33.275-43.084,72.565
					c0,39.29,19.764,72.236,43.084,71.942c23.24-0.293,42.811-33.523,42.811-72.563S2649.378,2248.65,2626.139,2248.693z"/>
			</g>
			<g>
				
					<linearGradient id="SVGID_00000043456267289782210020000006206536049548116100_" gradientUnits="userSpaceOnUse" x1="2567.0103" y1="2319.2092" x2="2684.7534" y2="2319.2092">
					<stop  offset="0" style="stop-color:#40447E"/>
					<stop  offset="0.9964" style="stop-color:#3C3B6B"/>
				</linearGradient>
				<polygon style="fill:url(#SVGID_00000043456267289782210020000006206536049548116100_);" points="2567.93,2337.79 
					2567.01,2304.951 2683.85,2300.629 2684.753,2333.185 				"/>
			</g>
			<g>
				
					<linearGradient id="SVGID_00000163074220063977528740000018076978066363693216_" gradientUnits="userSpaceOnUse" x1="2434.4651" y1="2406.7031" x2="2631.3647" y2="2406.7031">
					<stop  offset="0" style="stop-color:#40447E"/>
					<stop  offset="0.9964" style="stop-color:#3C3B6B"/>
				</linearGradient>
				<polygon style="fill:url(#SVGID_00000163074220063977528740000018076978066363693216_);" points="2460.565,2509.475 
					2434.465,2482.237 2613.005,2303.931 2631.365,2332.737 				"/>
			</g>
			<g>
				
					<linearGradient id="SVGID_00000019656805743405236890000000473073140636558758_" gradientUnits="userSpaceOnUse" x1="2244.7959" y1="2176.8181" x2="2858.1863" y2="2176.8181">
					<stop  offset="0" style="stop-color:#40447E"/>
					<stop  offset="0.9964" style="stop-color:#3C3B6B"/>
				</linearGradient>
				<path style="fill:url(#SVGID_00000019656805743405236890000000473073140636558758_);" d="M2278.033,2499.278l-33.237-4.426
					l63.947-480.492c12.446-93.528,90.328-162.28,180.951-159.944l339.823,8.789l28.669,539.362l-33.479,1.779l-27.027-508.425
					l-308.854-7.986c-73.526-1.785-136.666,54.353-146.847,130.852L2278.033,2499.278z"/>
			</g>
			
				<linearGradient id="SVGID_00000046317034998601260090000009324350908304085434_" gradientUnits="userSpaceOnUse" x1="2791.1921" y1="2306.5217" x2="2993.7305" y2="2306.5217">
				<stop  offset="0" style="stop-color:#311944"/>
				<stop  offset="1" style="stop-color:#6B3976"/>
			</linearGradient>
			<path style="fill:url(#SVGID_00000046317034998601260090000009324350908304085434_);" d="M2993.73,2415.876
				c0,18.032-13.527,32.878-30.637,33.16l-138.611,2.269c-18.168,0.299-33.29-14.662-33.29-33.411v-223.488
				c0-18.749,15.252-33.343,33.42-32.648l138.283,5.316c17.112,0.655,30.835,15.82,30.835,33.852V2415.876z"/>
			
				<linearGradient id="SVGID_00000071558988691705072630000010442188091102076343_" gradientUnits="userSpaceOnUse" x1="2651.5105" y1="2486.6716" x2="3032.1428" y2="2486.6716">
				<stop  offset="0" style="stop-color:#311944"/>
				<stop  offset="1" style="stop-color:#6B3976"/>
			</linearGradient>
			<path style="fill:url(#SVGID_00000071558988691705072630000010442188091102076343_);" d="M3032.143,2538.679
				c0,18.832-14.671,34.479-32.002,34.942l-314.651,8.38c-18.219,0.487-33.979-14.822-33.979-34.197v-116.939
				c0-19.375,15.439-35.271,33.658-35.504l314.656-4.027c17.331-0.222,32.319,14.855,32.319,33.687V2538.679z"/>
			
				<linearGradient id="SVGID_00000098920525382893822480000016838893092431040407_" gradientUnits="userSpaceOnUse" x1="2138.1809" y1="2569.5938" x2="2560.4873" y2="2569.5938">
				<stop  offset="0" style="stop-color:#FFC444"/>
				<stop  offset="0.3138" style="stop-color:#FBA94A"/>
				<stop  offset="0.9964" style="stop-color:#F36F56"/>
			</linearGradient>
			<path style="fill:url(#SVGID_00000098920525382893822480000016838893092431040407_);" d="M2550.037,2471.928l-377.876,3.494
				c-18.342,0.17-33.98,14.412-33.98,31.791v160.047l422.306-12.028L2550.037,2471.928z"/>
			<g>
				
					<linearGradient id="SVGID_00000169543015112778305360000013884490591733868694_" gradientUnits="userSpaceOnUse" x1="2597.8169" y1="2177.7214" x2="3182.6174" y2="2177.7214">
					<stop  offset="0" style="stop-color:#40447E"/>
					<stop  offset="0.9964" style="stop-color:#3C3B6B"/>
				</linearGradient>
				<path style="fill:url(#SVGID_00000169543015112778305360000013884490591733868694_);" d="M2631.067,2492.246l-33.25-4.311
					l60.738-468.268c11.665-89.929,83.754-156.47,168.588-156.47c1.403,0,2.797,0.019,4.205,0.054l275.936,7.133
					c26.934,0.701,49.194,23.711,50.681,52.389l24.653,475.417l-33.485,1.735l-24.653-475.417
					c-0.584-11.307-8.521-20.358-18.066-20.606l-275.933-7.132c-69.44-1.877-129.032,52.896-138.675,127.209L2631.067,2492.246z"/>
			</g>
			
				<linearGradient id="SVGID_00000065755016498248674740000006895051437676361608_" gradientUnits="userSpaceOnUse" x1="2508.3372" y1="2569.7515" x2="3248.6492" y2="2569.7515">
				<stop  offset="0" style="stop-color:#FFC444"/>
				<stop  offset="0.3138" style="stop-color:#FBA94A"/>
				<stop  offset="0.9964" style="stop-color:#F36F56"/>
			</linearGradient>
			<path style="fill:url(#SVGID_00000065755016498248674740000006895051437676361608_);" d="M3248.649,2415.284v179.714
				c0,21.571-15.786,39.537-35.289,40.151l-107.432,3.437c-29.645,0.949-56.495,21.459-67.868,51.999l-36.238,97.26
				c-2.458,6.566-8.216,11.037-14.669,11.344l-240.207,10.534c-4.108,0.168-7.935-1.257-10.953-4.051l-14.611-13.468
				l-213.046-195.585v-96.534c0-15.786,12.376-28.78,27.379-29.058l140.457-2.543c24.253-0.448,45.178,20.033,45.178,45.739v61.107
				c0,1.592-0.111,2.848,1.398,2.821l92.177-2.487c0.977-0.027,1.746-0.586,2.249-1.509l16.855-32.02
				c57.278-108.465,155.857-182.481,266.473-201.341l58.497-10.003c22.631-3.855,45.481,3.297,62.664,19.558
				C3238.82,2366.556,3248.649,2390.249,3248.649,2415.284z"/>
			<g>
				
					<linearGradient id="SVGID_00000135675020334075433380000000060020599256528773_" gradientUnits="userSpaceOnUse" x1="2277.2651" y1="2200.9109" x2="2374.2483" y2="2200.9109">
					<stop  offset="0" style="stop-color:#311944"/>
					<stop  offset="1" style="stop-color:#6B3976"/>
				</linearGradient>
				<path style="fill:url(#SVGID_00000135675020334075433380000000060020599256528773_);" d="M2374.248,2617.18
					c-32.177,0.924-64.503,1.85-96.983,2.779c3.227-279.496,6.448-559.856,9.671-838.097c26.018,0.831,51.94,1.659,77.763,2.483
					C2367.885,2062.153,2371.065,2339.697,2374.248,2617.18z"/>
				<polygon style="opacity:0.5;fill:#FFFFFF;" points="2333.735,2618.256 2312.783,2618.925 2312.783,1782.705 2333.735,1783.428 
									"/>
			</g>
			<g>
				
					<linearGradient id="SVGID_00000083780533006014009490000015893000593828778113_" gradientUnits="userSpaceOnUse" x1="1893.8341" y1="2200.2913" x2="1996.2471" y2="2200.2913">
					<stop  offset="0" style="stop-color:#311944"/>
					<stop  offset="1" style="stop-color:#6B3976"/>
				</linearGradient>
				<path style="fill:url(#SVGID_00000083780533006014009490000015893000593828778113_);" d="M1996.247,2628.013
					c-33.974,0.975-68.11,1.953-102.413,2.935c3.408-287.242,6.81-574.346,10.214-861.313c27.478,0.879,54.85,1.753,82.116,2.622
					C1989.528,2057.645,1992.887,2342.897,1996.247,2628.013z"/>
				<polygon style="opacity:0.5;fill:#FFFFFF;" points="1953.103,2629.151 1932.151,2629.863 1932.151,1770.554 1953.103,1771.292 
									"/>
			</g>
			
				<linearGradient id="SVGID_00000176722059893591731870000005041519649373302412_" gradientUnits="userSpaceOnUse" x1="2394.363" y1="2680.5928" x2="2729.0981" y2="2680.5928">
				<stop  offset="0" style="stop-color:#40447E"/>
				<stop  offset="0.9964" style="stop-color:#3C3B6B"/>
			</linearGradient>
			<path style="fill:url(#SVGID_00000176722059893591731870000005041519649373302412_);" d="M2726.638,2797.072
				c-0.572-0.525,24.477-204.68-73.57-232.653c-171.455-0.798-144.847,0.223-144.847,0.223h-86.616l-27.242,102.848
				L2726.638,2797.072z"/>
			<g>
				
					<linearGradient id="SVGID_00000181798463900594306470000008276792165123159992_" gradientUnits="userSpaceOnUse" x1="2369.001" y1="2756.813" x2="2641.4021" y2="2756.813">
					<stop  offset="0" style="stop-color:#311944"/>
					<stop  offset="1" style="stop-color:#6B3976"/>
				</linearGradient>
				<path style="fill:url(#SVGID_00000181798463900594306470000008276792165123159992_);" d="M2641.402,2753.768
					c0-57.973-22.282-108.233-56.156-139.128l-3.514-32.823l-81.084,2.112c-73.261,4.829-131.648,82.801-131.648,177.172
					s59.019,169.327,132.352,170.603v0.105l83.809-2.021v-33.555C2620.082,2863.654,2641.402,2811.741,2641.402,2753.768z"/>
				<g>
					
						<linearGradient id="SVGID_00000145050797339016320400000009780471281821603765_" gradientUnits="userSpaceOnUse" x1="2449.9443" y1="2755.9927" x2="2720.0298" y2="2755.9927">
						<stop  offset="0" style="stop-color:#311944"/>
						<stop  offset="1" style="stop-color:#6B3976"/>
					</linearGradient>
					<path style="fill:url(#SVGID_00000145050797339016320400000009780471281821603765_);" d="M2720.03,2750.676
						c0,95.911-59.529,176.777-133.695,180.659c-74.988,3.924-136.391-72.182-136.391-170.027s61.403-178.785,136.391-180.765
						C2660.501,2578.585,2720.03,2654.765,2720.03,2750.676z"/>
					<path style="fill:#FFFFFF;" d="M2653.068,2753.312c0,55.188-29.796,101.322-66.733,103.05
						c-37.14,1.738-67.398-42.031-67.398-97.77s30.258-101.89,67.398-103.076
						C2623.272,2654.336,2653.068,2698.123,2653.068,2753.312z"/>
					<path style="fill:#D8DEE8;" d="M2586.335,2655.515c-3.655,0.117-7.24,0.686-10.74,1.64
						c31.911,6.659,56.188,47.171,56.188,96.995s-24.278,92.247-56.188,101.418c3.5,0.679,7.085,0.964,10.74,0.793
						c36.937-1.728,66.733-47.861,66.733-103.05C2653.068,2698.123,2623.272,2654.335,2586.335,2655.515z"/>
				</g>
			</g>
			<g>
				
					<linearGradient id="SVGID_00000077302966571394397620000017841322577142976930_" gradientUnits="userSpaceOnUse" x1="2151.8542" y1="1990.2385" x2="2148.6389" y2="2713.7917">
					<stop  offset="0" style="stop-color:#FFC444"/>
					<stop  offset="0.3138" style="stop-color:#FBA94A"/>
					<stop  offset="0.9964" style="stop-color:#F36F56"/>
				</linearGradient>
				<polygon style="fill:url(#SVGID_00000077302966571394397620000017841322577142976930_);" points="2403.576,2854.591 
					1893.738,2834.338 1893.738,2564.828 2403.576,2562.725 				"/>
				
					<linearGradient id="SVGID_00000003065735275758233240000007822060157990220470_" gradientUnits="userSpaceOnUse" x1="2101.5273" y1="2396.6521" x2="2085.781" y2="3798.1687">
					<stop  offset="0" style="stop-color:#FFC444"/>
					<stop  offset="0.3138" style="stop-color:#FBA94A"/>
					<stop  offset="0.9964" style="stop-color:#F36F56"/>
				</linearGradient>
				<polygon style="fill:url(#SVGID_00000003065735275758233240000007822060157990220470_);" points="2347.703,2852.27 
					1848.342,2832.619 1848.342,2564.925 2347.703,2562.766 				"/>
			</g>
			<g>
				
					<linearGradient id="SVGID_00000152966774746526035970000005415314175459193759_" gradientUnits="userSpaceOnUse" x1="1928.6587" y1="2756.2578" x2="2297.1912" y2="2756.2578">
					<stop  offset="0" style="stop-color:#311944"/>
					<stop  offset="1" style="stop-color:#6B3976"/>
				</linearGradient>
				<polygon style="fill:url(#SVGID_00000152966774746526035970000005415314175459193759_);" points="1928.659,2928.091 
					1928.659,2954.004 2008.976,2965.644 2287.371,2853.788 2297.191,2568.293 2285.431,2546.871 2237.597,2832.318 				"/>
				
					<linearGradient id="SVGID_00000174586188738146668200000008069495497703289497_" gradientUnits="userSpaceOnUse" x1="2587.7661" y1="1960.4561" x2="2286.7561" y2="2533.5017">
					<stop  offset="0" style="stop-color:#311944"/>
					<stop  offset="1" style="stop-color:#6B3976"/>
				</linearGradient>
				<polygon style="fill:url(#SVGID_00000174586188738146668200000008069495497703289497_);" points="2233.749,2547.438 
					2228.101,2823.053 1927.495,2928.091 2006.749,2938.568 2277.766,2839.969 2285.091,2547.42 				"/>
			</g>
			<g>
				
					<linearGradient id="SVGID_00000101081678586376643710000003902559862705668529_" gradientUnits="userSpaceOnUse" x1="1603.8992" y1="2739.0886" x2="1951.4464" y2="2739.0886">
					<stop  offset="0" style="stop-color:#311944"/>
					<stop  offset="1" style="stop-color:#6B3976"/>
				</linearGradient>
				<polygon style="fill:url(#SVGID_00000101081678586376643710000003902559862705668529_);" points="1603.899,2902.714 
					1603.899,2928.396 1672.444,2934.798 1942.165,2832.676 1951.446,2563.571 1940.374,2543.379 1895.194,2812.438 				"/>
				
					<linearGradient id="SVGID_00000059997156114901393940000013507682440052118933_" gradientUnits="userSpaceOnUse" x1="2225.3643" y1="1990.6298" x2="1941.635" y2="2530.7773">
					<stop  offset="0" style="stop-color:#311944"/>
					<stop  offset="1" style="stop-color:#6B3976"/>
				</linearGradient>
				<polygon style="fill:url(#SVGID_00000059997156114901393940000013507682440052118933_);" points="1891.671,2543.914 
					1886.347,2803.706 1602.999,2902.714 1668.938,2906.862 1933.161,2819.65 1940.066,2543.896 				"/>
			</g>
			
				<linearGradient id="SVGID_00000181791700418604453570000003153528025163019414_" gradientUnits="userSpaceOnUse" x1="2721.325" y1="2616.072" x2="3248.6492" y2="2616.072">
				<stop  offset="0" style="stop-color:#FFC444"/>
				<stop  offset="0.3138" style="stop-color:#FBA94A"/>
				<stop  offset="0.9964" style="stop-color:#F36F56"/>
			</linearGradient>
			<path style="opacity:0.4;fill:url(#SVGID_00000181791700418604453570000003153528025163019414_);" d="M3248.649,2422.408v172.59
				c0,21.571-15.786,39.537-35.289,40.151l-107.432,3.437c-29.645,0.949-56.495,21.459-67.868,51.999l-36.238,97.26
				c-2.458,6.566-8.216,11.037-14.669,11.344l-240.207,10.534c-4.108,0.168-7.935-1.257-10.953-4.051l-14.669-13.468
				c2.235-5.392,4.806-10.924,7.767-16.597c59.15-113.355,201.956-72.646,233.64-173.232
				c31.657-100.587,27.941-117.351,179.827-130.455C3193.746,2467.505,3227.022,2447.304,3248.649,2422.408z"/>
		</g>
		<g>
			<defs>
				<path id="SVGID_00000041982845561556112210000011578758938996251798_" d="M708.766,3061.879
					c-210.891-215.444-330.677-903.563-119.819-1108.88c207.673-202.216,1122.46-37.558,1276.101,212.683
					c209.601,341.384-229.087,703.421-424.215,904.279C1242.816,3273.793,915.502,3273.077,708.766,3061.879z"/>
			</defs>
			<clipPath id="SVGID_00000036227027745892408350000015863724570555485119_">
				<use xlink:href="#SVGID_00000041982845561556112210000011578758938996251798_"  style="overflow:visible;"/>
			</clipPath>
			<g style="clip-path:url(#SVGID_00000036227027745892408350000015863724570555485119_);">
				<path style="fill:#FFFFFF;" d="M1763.297,2315.3c0,0-9.785-48.563,2.175-58.348c11.959-9.785,51.462-77.918,49.65-58.71
					c-1.812,19.208-10.147,43.852-10.147,43.852s37.328,3.624,27.906,25.731c-9.423,22.107-33.147,23.335-31.251,34.68
					C1803.525,2313.851,1764.747,2354.803,1763.297,2315.3z"/>
				
					<linearGradient id="SVGID_00000132803849141325920600000014377312636385298831_" gradientUnits="userSpaceOnUse" x1="1206.8546" y1="2458.8782" x2="1829.4587" y2="2458.8782">
					<stop  offset="0" style="stop-color:#444B8C"/>
					<stop  offset="0.9964" style="stop-color:#26264F"/>
				</linearGradient>
				<path style="fill:url(#SVGID_00000132803849141325920600000014377312636385298831_);" d="M1754.755,2305.775
					c18.488-1.29,36.973-2.58,55.46-3.869c43.613,176.235,12.331,347.193-86.102,410.065
					c-153.788,98.229-439.596-86.839-501.533-288.351c-27.186-88.449-20.997-216.097,33.338-240.898
					c15.082-6.886,38.484-7.955,89.188,20.513c151.422,85.015,155.403,245.694,232.381,259.302
					C1611.714,2468.588,1666.983,2446.765,1754.755,2305.775z"/>
				
					<linearGradient id="SVGID_00000034074737794614732020000001858332792557195444_" gradientUnits="userSpaceOnUse" x1="2170.3145" y1="3813.0283" x2="1822.0515" y2="3027.9609" gradientTransform="matrix(0.9986 0.0533 -0.0533 0.9986 -439.0934 -19.3005)">
					<stop  offset="0" style="stop-color:#AA80F9"/>
					<stop  offset="0.9964" style="stop-color:#6165D7"/>
				</linearGradient>
				<path style="fill:url(#SVGID_00000034074737794614732020000001858332792557195444_);" d="M1141.318,3393.213h202.088
					c-9.361-169.758-9.21-327.159-3.423-469.854c-94.128,14.565-188.258,29.131-282.388,43.696
					c13.438,183.988,49.402,323.018,81.028,418.13C1139.521,3387.887,1140.419,3390.558,1141.318,3393.213z"/>
				
					<linearGradient id="SVGID_00000061445482211612572040000016826855830581767344_" gradientUnits="userSpaceOnUse" x1="2116.3064" y1="3836.9836" x2="1768.043" y2="3051.9148" gradientTransform="matrix(0.9986 0.0533 -0.0533 0.9986 -439.0934 -19.3005)">
					<stop  offset="0" style="stop-color:#AA80F9"/>
					<stop  offset="0.9964" style="stop-color:#6165D7"/>
				</linearGradient>
				<path style="opacity:0.3;fill:url(#SVGID_00000061445482211612572040000016826855830581767344_);" d="M1141.318,3393.213
					h118.075c-12.785-63.648-52.432-103.181-73.97-149.213c-26.785-57.249-37.048-149.206,35.141-302.162
					c-54.323,8.406-108.647,16.813-162.97,25.218c13.438,183.987,49.402,323.018,81.028,418.129
					C1139.521,3387.886,1140.42,3390.557,1141.318,3393.213z"/>
				
					<linearGradient id="SVGID_00000134968896894659576100000014139561878696712863_" gradientUnits="userSpaceOnUse" x1="1487.4967" y1="3926.9058" x2="1139.2247" y2="3141.8179" gradientTransform="matrix(0.9976 -0.0694 0.0694 0.9976 -362.4067 92.9864)">
					<stop  offset="0" style="stop-color:#AA80F9"/>
					<stop  offset="0.9964" style="stop-color:#6165D7"/>
				</linearGradient>
				<path style="fill:url(#SVGID_00000134968896894659576100000014139561878696712863_);" d="M859.224,3379.328
					c24.988,3.606,49.8,8.355,74.436,13.885h154.067c15.116-162.408,31.307-322.721,48.489-480.869
					c-186.208-18.807-253.697,44.036-275.506,69.36c-60.111,69.79-49.481,183.058-16.237,395.631
					C849.399,3377.957,854.316,3378.62,859.224,3379.328z"/>
				
					<linearGradient id="SVGID_00000072988559577375913670000002554940873560013971_" gradientUnits="userSpaceOnUse" x1="1280.0205" y1="4018.9487" x2="931.7477" y2="3233.8586" gradientTransform="matrix(0.9976 -0.0694 0.0694 0.9976 -362.4067 92.9864)">
					<stop  offset="0" style="stop-color:#AA80F9"/>
					<stop  offset="0.9964" style="stop-color:#6165D7"/>
				</linearGradient>
				<path style="fill:url(#SVGID_00000072988559577375913670000002554940873560013971_);" d="M883.085,3393.213
					c-12.295-2.162-24.631-4.078-37.01-5.672c0.296,1.88,0.595,3.777,0.894,5.672H883.085z"/>
				
					<linearGradient id="SVGID_00000053537011251112664430000007921434518814980528_" gradientUnits="userSpaceOnUse" x1="638.6724" y1="2702.8293" x2="1431.3185" y2="2702.8293">
					<stop  offset="0" style="stop-color:#444B8C"/>
					<stop  offset="0.9964" style="stop-color:#26264F"/>
				</linearGradient>
				<path style="fill:url(#SVGID_00000053537011251112664430000007921434518814980528_);" d="M638.672,2265.133
					c82.06-52.182,155.592-92.873,243.128-112.214c77.74-17.178,136.625-11.727,209.494-6.193
					c141.123,10.72,229.356,17.422,287.275,83.884c51.225,58.78,52.339,135.066,52.692,151.303
					c1.418,65.409-24.022,98.783-42.716,152.996c-30.084,87.247,0.362,103.594,9.194,335.563c0,0,8.772,275.207-61.352,317.119
					c-30.008,17.936-55.598,79.599-208.729,64.422c-102.682-10.179-136.077-12.066-188.076,5.531
					c-70.808,23.958-98.775-21.972-127.986-35.058c-28.011-12.554-31.578-60.914-34.961-145.23
					c-5.219-130.065-4.898-218.469-5.379-250.114c-2.207-145.192-38.973-256.049-86.06-398.028
					C655.746,2340.313,662.372,2315.648,638.672,2265.133z"/>
				
					<linearGradient id="SVGID_00000039851488696926578760000017077216847396796340_" gradientUnits="userSpaceOnUse" x1="1123.2345" y1="3094.7209" x2="1679.1924" y2="1810.1196" gradientTransform="matrix(1 0 0 1 -201.5135 0)">
					<stop  offset="0" style="stop-color:#FF9085"/>
					<stop  offset="1" style="stop-color:#FB6FBB"/>
				</linearGradient>
				<path style="opacity:0.4;fill:url(#SVGID_00000039851488696926578760000017077216847396796340_);" d="M1276.863,3112.221
					c-75.317-32.137-74.881-98.646-145.226-126.402c-98.568-38.89-223.782,38.039-228.599,26.893
					c-5.352-12.38,178.641-61.011,230.871-197.844c19.848-51.999,25.008-128.101-12.41-160.201
					c-44.628-38.284-106.396,23.276-175.775-10.987c-79.779-39.4-65.998-154.33-134.028-173.577
					c-36.037-10.195-74.417,12.288-101.981,33.798c34.79,108.653,59.735,204.469,61.541,323.241
					c0.482,31.645,0.161,120.05,5.379,250.114c3.383,84.316,6.95,132.676,34.961,145.23c29.211,13.086,54.412,34.892,125.22,10.933
					c51.999-17.597,93.691-10.179,196.373,0c153.131,15.177,173.19-27.893,203.198-45.829
					c19.543-11.682,28.833-29.244,35.052-62.982C1340.741,3127.92,1308.173,3125.58,1276.863,3112.221z"/>
				
					<linearGradient id="SVGID_00000011006161516761928420000016470099970454370960_" gradientUnits="userSpaceOnUse" x1="744.547" y1="2820.6628" x2="1409.1788" y2="2820.6628">
					<stop  offset="0.0036" style="stop-color:#6165D7"/>
					<stop  offset="1" style="stop-color:#AA80F9"/>
				</linearGradient>
				<path style="fill:url(#SVGID_00000011006161516761928420000016470099970454370960_);" d="M796.848,2628.765
					c0,0-16.281-221.332,133.501-228.458c149.782-7.125,403.531-100.024,441.091,22.995
					c37.56,123.018,46.715,608.499,29.113,670.405c-17.602,61.907-72.874,191.006-144.001,170.637
					c-71.128-20.368-464.045,61.773-481.411-20.22C757.774,3162.13,705.676,2699.263,796.848,2628.765z"/>
				<g>
					<path style="fill:#FFFFFF;" d="M1077.502,2002.892c-1.643,36.504-7.258,65.225-12.168,84.837
						c-5.624,22.47-9.116,28.167-13.426,32.709c-6.489,6.84-16.065,12.356-69.044,22.53c-28.829,5.535-32.481,5.147-33.26,7.936
						c-3.799,13.612,71.28,64.7,152.041,57.666c49.427-4.303,95.557-29.909,93.603-44.752c-1.968-14.939-51.395-9.619-64.572-37.159
						c-9.165-19.158,3.635-44.978,18.266-66.144C1137.206,2035.387,1089.235,2028.017,1077.502,2002.892z"/>
					<g>
						
							<linearGradient id="SVGID_00000159428139503591329280000008035846186032904614_" gradientUnits="userSpaceOnUse" x1="1041.0209" y1="2017.7253" x2="1178.2207" y2="2017.7253">
							<stop  offset="0" style="stop-color:#311944"/>
							<stop  offset="1" style="stop-color:#893976"/>
						</linearGradient>
						<path style="fill:url(#SVGID_00000159428139503591329280000008035846186032904614_);" d="M1167.784,2022.18
							c12.399-14.76,14.547-41.572,2.113-59.257c-10.701-15.218-28.655-18.265-39.403-20.093
							c-31.148-5.292-71.391,5.68-86.687,33.79c-9.062,16.658,6.672,53.119,9.091,59.652c2.742,7.387,8.276,10.167,13.229,15.906
							c6.863,7.96,17.597,20.605,35.09,41.731c1.761-5.865,4.348-13.101,8.258-20.887c1.505-2.998,7.533-14.693,16.218-24.194
							C1143.09,2029.779,1156.03,2036.169,1167.784,2022.18z"/>
						<path style="fill:#FFFFFF;" d="M1075.633,2075.562c0,0,18.798,34.902,59.964,34.424c36.855-0.43,46.633-82.509,24.108-101.238
							c-7.516-6.25-23.061-9.508-35.996-6.618c-7.64,1.708-10.357,4.7-22.895,7.245c-11.566,2.352-14.72,0.916-18.318,3.627
							c-4.499,3.397-8.13,12.114-2.223,36.577c-6.629-7.468-14.894-10.641-21.005-8.146c-0.974,0.401-3.587,1.981-5.146,4.505
							C1048.483,2055.072,1056.436,2067.546,1075.633,2075.562z"/>
						
							<linearGradient id="SVGID_00000169556188466228442120000011117860476066324361_" gradientUnits="userSpaceOnUse" x1="1055.4048" y1="2063.2808" x2="1171.2507" y2="2063.2808">
							<stop  offset="0" style="stop-color:#311944"/>
							<stop  offset="1" style="stop-color:#893976"/>
						</linearGradient>
						<path style="fill:url(#SVGID_00000169556188466228442120000011117860476066324361_);" d="M1081.097,2007.99
							c1.701,1.415-4.066,7.733-4.969,17.066c-1.756,18.114,15.458,40.888,34.106,43.737c11.025,1.683,14.428-4.833,32.854-5.791
							c11.409-0.591,20.775,1.356,26.646,2.971c4.694,20.218-1.783,39.781-15.584,48.282c-14.859,9.152-32.841,2.159-40.36-0.766
							c-5.029-1.957-21.147-8.19-28.918-23.693c-8.095-16.154,1.176-25.135-8.507-36.286c-4.884-5.624-11.549-8.303-17.607-19.01
							c-1.645-2.908-2.71-5.462-3.353-7.174C1065.417,2017.79,1078.634,2005.939,1081.097,2007.99z"/>
						<path style="fill:#FFFFFF;" d="M1156.007,2072.639c0,0-8.153,3.722-21.82,2.218c-0.664-0.074-1.41,0.082-1.513,0.423
							c-0.384,1.283,8.098,7.584,16.323,5.741c5.839-1.314,10.606-6.519,9.906-7.947
							C1158.605,2072.473,1157.3,2072.481,1156.007,2072.639z"/>
					</g>
				</g>
				
					<linearGradient id="SVGID_00000049914211288035441440000004329119780012710562_" gradientUnits="userSpaceOnUse" x1="774.6188" y1="2313.9875" x2="966.3431" y2="2313.9875">
					<stop  offset="0.0036" style="stop-color:#6165D7"/>
					<stop  offset="1" style="stop-color:#AA80F9"/>
				</linearGradient>
				<path style="fill:url(#SVGID_00000049914211288035441440000004329119780012710562_);" d="M886.081,2151.994
					c0,0,96.366,219.915,77.914,288.909c-18.451,68.995-72.72,21.238-74.891,7.128c-2.171-14.11-114.486-258.993-114.486-258.993
					S817.984,2142.393,886.081,2151.994z"/>
				
					<linearGradient id="SVGID_00000125591812664966167580000006446297854557766307_" gradientUnits="userSpaceOnUse" x1="1199.5066" y1="2289.0337" x2="1335.0321" y2="2289.0337">
					<stop  offset="0.0036" style="stop-color:#6165D7"/>
					<stop  offset="1" style="stop-color:#AA80F9"/>
				</linearGradient>
				<path style="fill:url(#SVGID_00000125591812664966167580000006446297854557766307_);" d="M1199.549,2156.384
					c-2.169,1.225,80.019,199.523,70.251,244.5c-9.768,44.977,73.699,18.928,64.527-18.517
					c-9.172-37.446-33.547-194.165-50.462-209.826C1266.951,2156.88,1213.387,2148.568,1199.549,2156.384z"/>
				
					<linearGradient id="SVGID_00000118358197030622554770000017400204516637804936_" gradientUnits="userSpaceOnUse" x1="1001.1695" y1="2550.4033" x2="1280.681" y2="2550.4033">
					<stop  offset="0.0036" style="stop-color:#6165D7"/>
					<stop  offset="1" style="stop-color:#AA80F9"/>
				</linearGradient>
				<path style="fill:url(#SVGID_00000118358197030622554770000017400204516637804936_);" d="M1001.169,2508.541l275.957-46.4
					c0,0,32.423,153.811-98.567,173.368S1004.426,2580.176,1001.169,2508.541z"/>
				<g>
					
						<linearGradient id="SVGID_00000011007556461744251420000007616448237388395936_" gradientUnits="userSpaceOnUse" x1="1473.8115" y1="2730.2522" x2="1283.2375" y2="2585.7153">
						<stop  offset="0" style="stop-color:#311944"/>
						<stop  offset="1" style="stop-color:#6B3976"/>
					</linearGradient>
					<path style="fill:url(#SVGID_00000011007556461744251420000007616448237388395936_);" d="M1527.238,2392.013l-293.288,41.63
						c-3.22,0.457-5.84,2.82-6.625,5.975l-99.332,399.016c-1.425,5.724,6.226,18.893,11.995,17.669l287.077-69.402
						c2.928-0.622,5.263-2.83,6.047-5.718l107.559-373.957C1542.173,2401.691,1532.916,2391.207,1527.238,2392.013z"/>
					
						<linearGradient id="SVGID_00000168816371691834867290000004796344484368982931_" gradientUnits="userSpaceOnUse" x1="-550.3478" y1="2656.5989" x2="-977.0087" y2="2883.6924" gradientTransform="matrix(-0.9948 0.1018 0.1018 0.9948 349.6805 -26.8702)">
						<stop  offset="0" style="stop-color:#FFC444"/>
						<stop  offset="0.3138" style="stop-color:#FBA94A"/>
						<stop  offset="0.9964" style="stop-color:#F36F56"/>
					</linearGradient>
					<path style="fill:url(#SVGID_00000168816371691834867290000004796344484368982931_);" d="M1532.77,2400.964l-293.288,41.629
						c-3.22,0.457-5.84,2.821-6.625,5.976l-99.332,399.015c-1.424,5.724,3.635,10.963,9.404,9.739l289.668-61.473
						c2.929-0.621,5.263-2.829,6.047-5.718l102.951-379.172C1543.099,2405.425,1538.449,2400.157,1532.77,2400.964z"/>
					
						<linearGradient id="SVGID_00000034085518347064355970000003983088757389463485_" gradientUnits="userSpaceOnUse" x1="1403.1802" y1="2635.2649" x2="1399.9681" y2="2364.3928">
						<stop  offset="0" style="stop-color:#311944"/>
						<stop  offset="1" style="stop-color:#6B3976"/>
					</linearGradient>
					<path style="fill:url(#SVGID_00000034085518347064355970000003983088757389463485_);" d="M1453.717,2423.537l8.207-31.839
						c0.741-2.874-1.609-5.607-4.562-5.305l-107.185,10.97c-1.847,0.189-3.36,1.552-3.739,3.371l-7.304,35.035
						c-0.6,2.878,1.823,5.485,4.737,5.096l106.281-14.166C1451.872,2426.469,1453.283,2425.219,1453.717,2423.537z"/>
					<path style="opacity:0.3;fill:#FFFFFF;" d="M1303.634,2746.747c12.779-63.979-22.832-101.146,4.363-152.632
						c38.468-72.822,139.049-53.961,163.772-112.074c6.667-15.671,8.321-38.177-6.252-71.534l67.254-9.541
						c5.679-0.805,10.329,4.455,8.826,9.995l-102.951,379.172c-0.784,2.891-3.118,5.093-6.047,5.717l-176.047,37.366
						C1285.426,2802.32,1298.442,2772.751,1303.634,2746.747z"/>
				</g>
				<path style="fill:#FFFFFF;" d="M1083.885,2722.668c0,0,43.591-13.406,59.647-25.962c16.056-12.564,32.478-31.781,57.876-33.426
					c25.399-1.636,52.177,8.617,40.791,12.769c-11.387,4.145-30.847,29.566-46.591,40.402
					c-15.745,10.837-53.775,15.561-60.923,15.79c-7.147,0.23-33.442,19.947-33.442,19.947L1083.885,2722.668z"/>
				
					<linearGradient id="SVGID_00000154389169722804738970000000996835976574470530_" gradientUnits="userSpaceOnUse" x1="548.8763" y1="2589.2151" x2="1145.816" y2="2589.2151">
					<stop  offset="0" style="stop-color:#444B8C"/>
					<stop  offset="0.9964" style="stop-color:#26264F"/>
				</linearGradient>
				<path style="fill:url(#SVGID_00000154389169722804738970000000996835976574470530_);" d="M1109.801,2666.537
					c23.318,19.545,33.26,38.748,35.5,56.518c9.927,78.764-125.278,178.405-254.285,189.234
					c-95.493,8.017-191.075-32.517-251.277-94.413c-117.472-120.777-124.405-347.875-1.066-552.743
					c31.532,15.619,63.065,31.238,94.597,46.857c87.912,43.544,140.94,137.967,127.335,235.123
					c-8.977,64.103,11.677,121.972,48.849,148.333C956.925,2729.112,1040.741,2718.06,1109.801,2666.537z"/>
			</g>
		</g>
		<g>
			<g>
				
					<linearGradient id="SVGID_00000056425210756244423690000003747648930384616336_" gradientUnits="userSpaceOnUse" x1="1125.5247" y1="725.6181" x2="1306.4386" y2="1191.6079">
					<stop  offset="0" style="stop-color:#FF9085"/>
					<stop  offset="1" style="stop-color:#FB6FBB"/>
				</linearGradient>
				<path style="fill:url(#SVGID_00000056425210756244423690000003747648930384616336_);" d="M1328.343,790.838
					c0,76.764-107.543,216.842-156.212,276.305c-12.111,14.797-34.752,14.797-46.863,0
					c-48.669-59.462-156.212-199.541-156.212-276.305c0-99.214,80.429-179.643,179.643-179.643
					C1247.914,611.195,1328.343,691.624,1328.343,790.838z"/>
				
					<ellipse transform="matrix(0.2298 -0.9732 0.9732 0.2298 115.1003 1727.1113)" style="fill:#FFFFFF;" cx="1148.7" cy="790.838" rx="100.189" ry="100.19"/>
				<g style="opacity:0.3;">
					
						<linearGradient id="SVGID_00000129192505248150834280000016088200900771745683_" gradientUnits="userSpaceOnUse" x1="1060.7457" y1="750.7673" x2="1241.6603" y2="1216.7584">
						<stop  offset="0" style="stop-color:#FF9085"/>
						<stop  offset="1" style="stop-color:#FB6FBB"/>
					</linearGradient>
					<path style="fill:url(#SVGID_00000129192505248150834280000016088200900771745683_);" d="M1147.906,993.384
						c11.398-75.057,60.962-99.082,52.455-169.954c-9.811-81.735-82.182-103.504-83.928-176.249
						c-0.281-11.711,1.312-23.005,4.317-33.819c-85.939,13.426-151.694,87.769-151.694,177.475
						c0,76.764,107.543,216.842,156.212,276.305c7.129,8.71,17.904,12.286,28.035,10.743
						C1144.593,1045.011,1144.329,1016.938,1147.906,993.384z"/>
				</g>
			</g>
			
				<linearGradient id="SVGID_00000159455404783604617420000002022658616219154878_" gradientUnits="userSpaceOnUse" x1="1195.7859" y1="1083.0714" x2="1078.287" y2="1261.418">
				<stop  offset="0" style="stop-color:#FF9085"/>
				<stop  offset="1" style="stop-color:#FB6FBB"/>
			</linearGradient>
			<circle style="fill:url(#SVGID_00000159455404783604617420000002022658616219154878_);" cx="1148.7" cy="1154.542" r="36.718"/>
		</g>
	</g>
</g>
</svg>
