<?xml version="1.0" encoding="iso-8859-1"?>
<!-- Uploaded to: SVG Repo, www.svgrepo.com, Generator: SVG Repo Mixer Tools -->
<svg version="1.1" id="Layer_1" xmlns="http://www.w3.org/2000/svg" xmlns:xlink="http://www.w3.org/1999/xlink" 
	 viewBox="0 0 512 512" xml:space="preserve">
<path style="fill:#2D2D2D;" d="M0,355.2V31.2c0.102-5.701,4.699-10.297,10.4-10.4h491.2c5.701,0.102,10.297,4.699,10.4,10.4v324
	L0,355.2L0,355.2z"/>
<g>
	<path style="fill:#BCBCBC;" d="M512,355.2v41.6c-0.102,5.701-4.699,10.297-10.4,10.4H10.4c-5.7-0.102-10.297-4.699-10.4-10.401
		v-41.6L512,355.2L512,355.2z"/>
	<rect x="146.404" y="480.8" style="fill:#BCBCBC;" width="219.201" height="10.4"/>
</g>
<polygon style="fill:#2D2D2D;" points="328.801,480.8 183.2,480.8 193.6,407.2 318.4,407.2 "/>
<rect x="20.8" y="41.6" style="fill:#FFFFFF;" width="470.401" height="292.798"/>
<polygon points="318.4,407.2 193.6,407.2 187.792,448.281 320.272,420.424 "/>
<g>
	<rect x="99.001" y="252.322" style="fill:#999999;" width="313.997" height="12"/>
	<rect x="156.14" y="292.222" style="fill:#999999;" width="199.738" height="12"/>
	<circle style="fill:#999999;" cx="156.374" cy="109.82" r="33.267"/>
</g>
<path style="fill:#E21B1B;" d="M213.776,216.864v-29.456c0-31.008-33.832-31.568-33.832-31.568H132.8
	c0,0-33.832,0.384-33.832,31.568v29.456L213.776,216.864z"/>
<circle style="fill:#999999;" cx="355.605" cy="109.82" r="33.267"/>
<path style="fill:#E21B1B;" d="M413.008,216.864v-29.456c0-31.008-33.832-31.568-33.832-31.568h-47.12
	c0,0-33.832,0.384-33.832,31.568v29.456L413.008,216.864z"/>
</svg>